<svg width="50" height="50" fill="none" xmlns="http://www.w3.org/2000/svg"><path d="M31.731 23.398c-.635 0-1.098.256-1.391.769-.294.512-.44 1.425-.44 2.735v.915c0 1.302.138 2.212.415 2.729.277.517.743.775 1.404.775.683 0 1.2-.304 1.55-.915v-6.031c-.34-.65-.852-.977-1.538-.977zM39.583 6.25H10.417a4.167 4.167 0 00-4.167 4.167v29.166a4.167 4.167 0 004.167 4.167h29.166c2.3 0 4.167-1.865 4.167-4.167V10.417a4.167 4.167 0 00-4.167-4.167zM21.404 33.958l-2.442-6.212-2.427 6.212h-4.164l4.273-8.96-4.188-8.813h4.115l2.391 6.105 2.392-6.105h4.115l-4.175 8.813 4.273 8.96h-4.163zm15.346 0h-3.138l-.158-1.343c-.708 1.058-1.619 1.587-2.735 1.587-1.384 0-2.44-.53-3.169-1.587-.73-1.059-1.1-2.613-1.117-4.663v-1c0-2.165.367-3.78 1.098-4.846.732-1.066 1.798-1.6 3.198-1.6 1.017 0 1.865.44 2.54 1.319v-6.617h3.479v18.75h.002z" fill="#F3F3F3" fill-opacity=".2"/></svg>