<svg width="20" height="20" fill="none" xmlns="http://www.w3.org/2000/svg"><g clip-path="url(#clip0)"><path d="M10 .417c-5.525 0-10 4.4-10 9.826 0 4.343 2.865 8.025 6.838 9.324.5.092.683-.212.683-.473 0-.233-.008-.852-.013-1.67-2.781.592-3.368-1.319-3.368-1.319-.455-1.134-1.112-1.438-1.112-1.438-.906-.609.07-.596.07-.596 1.004.068 1.531 1.012 1.531 1.012.892 1.503 2.341 1.069 2.913.818.09-.636.347-1.069.633-1.314-2.22-.246-4.555-1.091-4.555-4.856 0-1.073.388-1.95 1.03-2.637-.113-.248-.45-1.247.087-2.6 0 0 .837-.264 2.75 1.007.8-.218 1.65-.327 2.5-.332.85.005 1.7.114 2.5.332 1.9-1.271 2.737-1.008 2.737-1.008.538 1.354.2 2.353.1 2.601a3.77 3.77 0 011.025 2.637c0 3.775-2.337 4.606-4.562 4.847.35.295.675.898.675 1.819 0 1.315-.013 2.371-.013 2.69 0 .258.175.566.688.467 4-1.29 6.863-4.975 6.863-9.31C20 4.816 15.523.416 10 .416z" fill="#F3F3F3"/></g><defs><clipPath id="clip0"><path fill="#fff" d="M0 0h20v20H0z"/></clipPath></defs></svg>