<svg width="20" height="20" fill="none" xmlns="http://www.w3.org/2000/svg"><g clip-path="url(#clip0)" fill="#F3F3F3"><path d="M10.003 4.865a5.131 5.131 0 100 10.263 5.131 5.131 0 100-10.263zm0 8.463a3.33 3.33 0 113.33-3.33 3.33 3.33 0 01-3.33 3.33z"/><path d="M14.123.063c-1.84-.085-6.397-.081-8.239 0C4.266.14 2.838.53 1.687 1.681-.236 3.604.01 6.196.01 9.997c0 3.89-.217 6.422 1.677 8.316 1.931 1.93 4.56 1.677 8.316 1.677 3.854 0 5.184.003 6.546-.525 1.853-.719 3.25-2.375 3.388-5.349.086-1.84.081-6.398 0-8.24-.165-3.51-2.05-5.64-5.814-5.813zm2.913 16.977c-1.261 1.261-3.01 1.149-7.057 1.149-4.167 0-5.837.061-7.057-1.161-1.404-1.398-1.15-3.642-1.15-7.045 0-4.604-.472-7.92 4.149-8.156 1.061-.038 1.374-.05 4.046-.05l.038.025c4.44 0 7.925-.465 8.134 4.155.048 1.054.058 1.37.058 4.039 0 4.118.078 5.8-1.161 7.044z"/><path d="M15.338 5.862a1.2 1.2 0 100-2.399 1.2 1.2 0 000 2.399z"/></g><defs><clipPath id="clip0"><path fill="#fff" d="M0 0h20v20H0z"/></clipPath></defs></svg>