<svg width="50" height="50" fill="none" xmlns="http://www.w3.org/2000/svg"><path d="M29.867 3.008a1.147 1.147 0 00-.312.094c-.86.425-1.836 1.691-2.024 1.941-.011.016-.023.031-.031.047A8.965 8.965 0 0026 9.988a9.876 9.876 0 00.77 3.89c1.218 2.927 3.75 5.349 6.761 6.481.102.035.2.07.375.133.016.008.164.055.188.059l.11.039c.155.05.316.101.472.133.793.16 1.566.25 2.293.273.125 0 .25.004.375.004 5.48 0 7.605-3.867 8.312-5.156.07-.125.121-.227.168-.29 0-.003 0-.003.004-.007a1 1 0 10-1.652-1.125h-.004c-1.461 2.152-3.961 2.805-7.426 1.945a7.144 7.144 0 01-.789-.254 9.55 9.55 0 01-.96-.402 10.07 10.07 0 01-1.692-1.059c-3.047-2.363-4.239-7.28-2.457-10.12a1 1 0 00-.98-1.524zM21.007 5a.979.979 0 00-.644.227c-1.511 1.23-3.058 3.246-3.125 3.328a.27.27 0 01-.027.043c-2.734 3.98-2.941 9.644-.523 14.43.378.757.808 1.48 1.265 2.144l.137.195c.387.567.82 1.207 1.375 1.707.191.219.398.43.601.633l.098.102.082.082c.207.199.418.402.637.597h.004c.015.024.039.04.058.059.246.219.496.426.828.687l.09.067a16.67 16.67 0 00.871.652c.094.063.188.121.282.188l.093.062.11.07c.199.133.394.254.672.415.18.109.37.218.496.28.054.032.113.063.25.137l.304.16.102.047c.2.102.406.2.613.293l.317.141c.207.09.418.176.675.274l.118.042c.007.008.105.044.113.047.187.067.379.133.57.196l.438.144c.218.074.472.16.75.207 1.363.227 2.687.344 3.941.344.148 0 .297-.004.441-.004 11.04-.242 13.91-9.621 13.938-9.715a1.004 1.004 0 00-.531-1.187 1.001 1.001 0 00-1.254.343c-2.797 4.086-8.086 5.813-13.473 4.391a11.68 11.68 0 01-.793-.23 2.763 2.763 0 01-.176-.063 9.131 9.131 0 01-.543-.187l-.277-.106a12.72 12.72 0 01-.515-.21l-.13-.06c-.238-.1-.468-.214-.675-.316l-.57-.297c-.13-.062-.243-.132-.418-.238l-.098-.055-.098-.058a6.49 6.49 0 01-.422-.27l-.093-.058a1.382 1.382 0 01-.094-.067l-.34-.218c-.242-.172-.48-.352-.758-.57l-.11-.09c-2.577-2.06-4.484-4.81-5.378-7.758-.832-2.707-.215-6.25 1.652-9.477a.995.995 0 00-.218-1.262.984.984 0 00-.637-.238zM10.005 8c-.238 0-.48.086-.672.258-1.91 1.715-3.34 3.937-3.496 4.191-4.086 5.95-3.297 15.196-.492 20.848.054.117.113.23.172.344l.039.062c.05.113.109.23.129.254a.964.964 0 00.097.18c.047.097.094.183.18.332l.32.55.11.18a35 35 0 00.195.313l.156.25c.047.074.094.14.125.18.156.242.313.484.485.714a.17.17 0 00.023.028l.062.086a9.9 9.9 0 00.415.558l.57.723c.008.008.07.082.074.09l.082.093c.172.211.356.422.54.625.027.032.054.059.081.09.176.192.356.383.543.582l.18.172c.148.156.297.309.453.453 0 .004.074.075.074.075l.156.144c.188.18.383.36.532.484.008.012.148.133.16.141.183.164.367.32.554.473l.958.758.511.37c.063.047.13.094.196.137a.673.673 0 00.078.059l.719.48c.261.172.523.332.843.524l.172.097c.2.118.402.235.594.336.113.063.226.118.324.168.137.075.285.157.512.266a18.362 18.362 0 00.945.445c0 .004.094.047.094.047a42.846 42.846 0 00.984.406c.242.094.496.188.703.262l.145.059a37.001 37.001 0 001.031.332l.2.062c.242.075.484.153.745.203 1.86.34 3.676.516 5.395.516h.004c14.324 0 18.887-11.527 18.933-11.645a1 1 0 00-1.734-.96c-3.676 4.84-10.61 6.636-18.547 4.812a10.55 10.55 0 01-.578-.16l-.375-.113a21.332 21.332 0 01-.871-.293c-.219-.075-.438-.16-.629-.235l-.219-.086a19.327 19.327 0 01-.718-.304l-.137-.059c-.211-.098-.414-.191-.617-.293a4.223 4.223 0 00-.192-.09c-.14-.07-.281-.144-.46-.242l-.817-.438a2.787 2.787 0 00-.25-.148c-.246-.152-.5-.305-.75-.465-.059-.035-.11-.074-.207-.14-.172-.11-.34-.223-.586-.395l-.098-.07c-.168-.117-.332-.242-.468-.344-.086-.063-.172-.133-.313-.238-.125-.098-.25-.192-.367-.285l-.219-.18c-.183-.148-.355-.305-.535-.457a.508.508 0 00-.07-.059c-.2-.183-.403-.367-.645-.597l-.707-.703a20.942 20.942 0 01-.539-.57c-.18-.2-.351-.4-.582-.673l-.422-.515a2.69 2.69 0 00-.172-.227c-.144-.195-.289-.387-.433-.59-3.891-5.36-4.907-16.547-1.875-20.644A1 1 0 0010.004 8z" fill="#F3F3F3" fill-opacity=".2"/></svg>