<svg width="50" height="50" fill="none" xmlns="http://www.w3.org/2000/svg"><path fill-rule="evenodd" clip-rule="evenodd" d="M45.787 38.89A25 25 0 0050 25H27.79v7.5h-4.41v-1.755c-.345.585-.84 1.05-1.485 1.395-.63.345-1.372.517-2.227.517a5.008 5.008 0 01-2.745-.787c-.81-.525-1.455-1.275-1.935-2.25-.465-.99-.698-2.137-.698-3.443 0-1.305.233-2.444.698-3.42.48-.975 1.125-1.725 1.934-2.25a5.008 5.008 0 012.745-.787c.87 0 1.62.172 2.25.518.63.345 1.118.81 1.463 1.395v-1.755H25V0a25 25 0 1020.787 38.89zM30.55 32.05c.48.42 1.11.63 1.89.63.764 0 1.38-.218 1.844-.652a2.1 2.1 0 00.72-1.62c0-.66-.24-1.208-.72-1.643-.464-.435-1.08-.652-1.844-.652-.78 0-1.41.217-1.89.652-.465.435-.698.982-.698 1.642 0 .66.232 1.208.697 1.643z" fill="#EFA649"/><path d="M22.705 24.265c.45.465.675 1.102.675 1.912 0 .826-.225 1.47-.675 1.936a2.128 2.128 0 01-1.62.697c-.66 0-1.207-.232-1.643-.697-.434-.48-.652-1.125-.652-1.936 0-.825.218-1.462.652-1.912.436-.465.983-.698 1.643-.698.645 0 1.185.233 1.62.698z" fill="#EFA649"/></svg>