<svg width="50" height="50" fill="none" xmlns="http://www.w3.org/2000/svg"><path d="M10.417 6.25a4.179 4.179 0 00-4.167 4.167v29.166a4.179 4.179 0 004.167 4.167h29.166a4.179 4.179 0 004.167-4.167V10.417a4.179 4.179 0 00-4.167-4.167H10.417zm3.938 10.417h5.624c4.846 0 5.424 4.459 5.424 5.428-.002 3.875-2.712 5.228-5.233 5.228h-2.327v5.815h-3.488V16.667zm3.488 2.714v5.232h2.327c1.55 0 1.937-1.162 1.937-2.518.002-1.359-.579-2.714-1.937-2.714h-2.327zm13.761 1.355c2.906 0 4.456 1.746 4.456 3.877h-3.292c0-.968-.389-1.55-1.164-1.55-.581 0-1.164.389-1.164 1.164 0 1.937 5.624 1.355 5.624 5.62-.002 2.905-2.91 3.486-4.46 3.486-3.1 0-4.65-2.131-4.65-4.069h3.1c0 1.55 1.163 1.746 1.55 1.746.775 0 1.355-.389 1.355-1.164 0-1.744-5.623-1.55-5.623-5.428 0-2.906 2.716-3.682 4.268-3.682z" fill="#F3F3F3" fill-opacity=".2"/></svg>