<svg width="21" height="20" fill="none" xmlns="http://www.w3.org/2000/svg"><g clip-path="url(#clip0)"><path d="M12.793 18.212l8.083-7.917a.411.411 0 000-.59L12.793 1.79a2.266 2.266 0 00-3.154 0 2.155 2.155 0 000 3.09l3.102 3.038H2.707C1.535 7.917.58 8.852.58 10c0 1.148.955 2.083 2.127 2.083h10.034l-3.102 3.038a2.155 2.155 0 000 3.09 2.267 2.267 0 003.154 0z" fill="#F3F3F3"/></g><defs><clipPath id="clip0"><path fill="#fff" transform="rotate(90 10.5 10.5)" d="M0 0h20v20.42H0z"/></clipPath></defs></svg>