<svg width="50" height="50" viewBox="0 0 50 50" fill="none" xmlns="http://www.w3.org/2000/svg">
<path d="M31.7312 23.3979C31.0958 23.3979 30.6333 23.6542 30.3396 24.1667C30.0458 24.6792 29.9 25.5917 29.9 26.9021V27.8167C29.9 29.1187 30.0375 30.0292 30.3146 30.5458C30.5917 31.0625 31.0583 31.3208 31.7188 31.3208C32.4021 31.3208 32.9187 31.0167 33.2687 30.4062V24.375C32.9292 23.725 32.4167 23.3979 31.7312 23.3979ZM39.5833 6.25H10.4167C8.11667 6.25 6.25 8.11458 6.25 10.4167V39.5833C6.25 41.8854 8.11667 43.75 10.4167 43.75H39.5833C41.8833 43.75 43.75 41.8854 43.75 39.5833V10.4167C43.75 8.11458 41.8833 6.25 39.5833 6.25ZM21.4042 33.9583L18.9625 27.7458L16.5354 33.9583H12.3708L16.6437 24.9979L12.4563 16.1854H16.5708L18.9625 22.2896L21.3542 16.1854H25.4688L21.2937 24.9979L25.5667 33.9583H21.4042ZM36.75 33.9583H33.6125L33.4542 32.6146C32.7458 33.6729 31.8354 34.2021 30.7187 34.2021C29.3354 34.2021 28.2792 33.6729 27.55 32.6146C26.8208 31.5562 26.45 30.0021 26.4333 27.9521V26.9521C26.4333 24.7875 26.8 23.1729 27.5312 22.1062C28.2625 21.0396 29.3292 20.5063 30.7292 20.5063C31.7458 20.5063 32.5937 20.9458 33.2687 21.825V15.2083H36.7479V33.9583H36.75Z" fill="#F3F3F3" fill-opacity="0.2"/>
</svg>
