<svg width="20" height="20" viewBox="0 0 20 20" fill="none" xmlns="http://www.w3.org/2000/svg">
<g clip-path="url(#clip0)">
<path d="M10.0033 4.86499C7.16751 4.86499 4.87167 7.16332 4.87167 9.99666C4.87167 12.8325 7.17001 15.1283 10.0033 15.1283C12.8392 15.1283 15.135 12.83 15.135 9.99666C15.135 7.16082 12.8367 4.86499 10.0033 4.86499ZM10.0033 13.3275C8.16251 13.3275 6.67251 11.8367 6.67251 9.99666C6.67251 8.15666 8.16334 6.66582 10.0033 6.66582C11.8433 6.66582 13.3342 8.15666 13.3342 9.99666C13.335 11.8367 11.8442 13.3275 10.0033 13.3275Z" fill="#F3F3F3"/>
<path d="M14.1233 0.0634936C12.2833 -0.0223397 7.72578 -0.0181731 5.88411 0.0634936C4.26578 0.139327 2.83828 0.53016 1.68745 1.68099C-0.235888 3.60433 0.00994525 6.19599 0.00994525 9.99683C0.00994525 13.8868 -0.206721 16.4185 1.68745 18.3127C3.61828 20.2427 6.24745 19.9902 10.0033 19.9902C13.8566 19.9902 15.1866 19.9927 16.5491 19.4652C18.4016 18.746 19.7999 17.0902 19.9366 14.116C20.0233 12.2752 20.0183 7.71849 19.9366 5.87683C19.7716 2.36599 17.8874 0.236827 14.1233 0.0634936ZM17.0358 17.0402C15.7749 18.301 14.0258 18.1885 9.97911 18.1885C5.81245 18.1885 4.14161 18.2502 2.92245 17.0277C1.51828 15.6302 1.77245 13.386 1.77245 9.98349C1.77245 5.37933 1.29995 2.06349 5.92078 1.82683C6.98245 1.78933 7.29495 1.77683 9.96745 1.77683L10.0049 1.80183C14.4458 1.80183 17.9299 1.33683 18.1391 5.95683C18.1866 7.01099 18.1974 7.32766 18.1974 9.99599C18.1966 14.1143 18.2749 15.7952 17.0358 17.0402Z" fill="#F3F3F3"/>
<path d="M15.3383 5.86171C16.0006 5.86171 16.5375 5.32483 16.5375 4.66255C16.5375 4.00026 16.0006 3.46338 15.3383 3.46338C14.676 3.46338 14.1392 4.00026 14.1392 4.66255C14.1392 5.32483 14.676 5.86171 15.3383 5.86171Z" fill="#F3F3F3"/>
</g>
<defs>
<clipPath id="clip0">
<rect width="20" height="20" fill="white"/>
</clipPath>
</defs>
</svg>
