<svg width="50" height="50" viewBox="0 0 50 50" fill="none" xmlns="http://www.w3.org/2000/svg">
<path fill-rule="evenodd" clip-rule="evenodd" d="M45.7867 38.8892C48.5338 34.778 50 29.9445 50 25H27.79V32.5H23.38V30.745C23.035 31.33 22.54 31.795 21.895 32.14C21.265 32.485 20.5225 32.6575 19.6675 32.6575C18.6625 32.6575 17.7475 32.395 16.9225 31.87C16.1125 31.345 15.4675 30.595 14.9875 29.62C14.5225 28.63 14.29 27.4825 14.29 26.1775C14.29 24.8725 14.5225 23.7325 14.9875 22.7575C15.4675 21.7825 16.1125 21.0325 16.9225 20.5075C17.7475 19.9825 18.6625 19.72 19.6675 19.72C20.5375 19.72 21.2875 19.8925 21.9175 20.2375C22.5475 20.5825 23.035 21.0475 23.38 21.6325V19.8775H25V0C20.0555 0 15.222 1.46622 11.1108 4.21326C6.99952 6.96029 3.79521 10.8648 1.90302 15.4329C0.0108321 20.0011 -0.484251 25.0277 0.480379 29.8773C1.44501 34.7268 3.82603 39.1814 7.32234 42.6777C10.8187 46.174 15.2732 48.555 20.1228 49.5196C24.9723 50.4843 29.9989 49.9892 34.5671 48.097C39.1352 46.2048 43.0397 43.0005 45.7867 38.8892ZM30.5505 32.05C31.0305 32.47 31.6605 32.68 32.4405 32.68C33.2055 32.68 33.8205 32.4625 34.2855 32.0275C34.7655 31.5925 35.0055 31.0525 35.0055 30.4075C35.0055 29.7475 34.7655 29.2 34.2855 28.765C33.8205 28.33 33.2055 28.1125 32.4405 28.1125C31.6605 28.1125 31.0305 28.33 30.5505 28.765C30.0855 29.2 29.853 29.7475 29.853 30.4075C29.853 31.0675 30.0855 31.615 30.5505 32.05Z" fill="#EFA649"/>
<path d="M22.705 24.265C23.155 24.73 23.38 25.3675 23.38 26.1775C23.38 27.0025 23.155 27.6475 22.705 28.1125C22.27 28.5775 21.73 28.81 21.085 28.81C20.425 28.81 19.8775 28.5775 19.4425 28.1125C19.0075 27.6325 18.79 26.9875 18.79 26.1775C18.79 25.3525 19.0075 24.715 19.4425 24.265C19.8775 23.8 20.425 23.5675 21.085 23.5675C21.73 23.5675 22.27 23.8 22.705 24.265Z" fill="#EFA649"/>
</svg>
