<svg width="50" height="50" viewBox="0 0 50 50" fill="none" xmlns="http://www.w3.org/2000/svg">
<path d="M10.4167 6.25C8.125 6.25 6.25 8.125 6.25 10.4167V39.5833C6.25 41.875 8.125 43.75 10.4167 43.75H39.5833C41.875 43.75 43.75 41.875 43.75 39.5833V10.4167C43.75 8.125 41.875 6.25 39.5833 6.25H10.4167ZM14.3555 16.6667H19.9788C24.8247 16.6667 25.4028 21.126 25.4028 22.0947C25.4007 25.9697 22.6909 27.3234 20.1701 27.3234H17.8426V33.138H14.3555V16.6667ZM17.8426 19.3807V24.6134H20.1701C21.7201 24.6134 22.1069 23.451 22.1069 22.0947C22.109 20.7364 21.5284 19.3807 20.1701 19.3807H17.8426ZM31.604 20.7357C34.5103 20.7357 36.0596 22.4822 36.0596 24.6134H32.7677C32.7677 23.6447 32.379 23.0631 31.604 23.0631C31.0228 23.0631 30.4403 23.4519 30.4403 24.2269C30.4403 26.1644 36.0636 25.5816 36.0636 29.8462C36.0616 32.7524 33.154 33.3333 31.604 33.3333C28.504 33.3333 26.9531 31.2018 26.9531 29.2643H30.0537C30.0537 30.8143 31.2165 31.0099 31.604 31.0099C32.379 31.0099 32.959 30.6212 32.959 29.8462C32.959 28.1024 27.3356 28.2952 27.3356 24.4181C27.3356 21.5119 30.0519 20.7357 31.604 20.7357Z" fill="#F3F3F3" fill-opacity="0.2"/>
</svg>
