<svg width="21" height="20" viewBox="0 0 21 20" fill="none" xmlns="http://www.w3.org/2000/svg">
<g clip-path="url(#clip0)">
<path d="M12.7929 18.2115L20.8756 10.2949C21.0415 10.1324 21.0415 9.8682 20.8756 9.70571L12.7929 1.78914C11.9233 0.937473 10.5085 0.937473 9.63893 1.78914C8.76939 2.64082 8.76939 4.02662 9.63893 4.87829L12.741 7.91658L2.70739 7.91658C1.53499 7.91658 0.580381 8.85157 0.580381 9.99988C0.580381 11.1482 1.53499 12.0832 2.70739 12.0832H12.741L9.63897 15.1215C8.76943 15.9731 8.76943 17.3589 9.63897 18.2106C10.5076 19.0623 11.9234 19.0623 12.7929 18.2115Z" fill="#F3F3F3"/>
</g>
<defs>
<clipPath id="clip0">
<rect width="20" height="20.4196" fill="white" transform="translate(21) rotate(90)"/>
</clipPath>
</defs>
</svg>
